<?xml version="1.0" encoding="utf-8"?>
<!-- Generator: Adobe Illustrator 24.2.3, SVG Export Plug-In . SVG Version: 6.00 Build 0)  -->
<svg version="1.1" id="Layer_1" xmlns="http://www.w3.org/2000/svg" xmlns:xlink="http://www.w3.org/1999/xlink" x="0px" y="0px"
	 viewBox="0 0 85 84.9" style="enable-background:new 0 0 85 84.9;" xml:space="preserve">
<style type="text/css">
	.st0{fill:#A5BF97;}
</style>
<path class="st0" d="M84.8,14.1L70.7,0c-1.1,0-1.7,0-2.8,0L42.4,25.4L16.9,0c-1.1,0-1.7,0-2.8,0L0,14.1c0,1.1,0,1.7,0,2.8l25.4,25.5
	L0,67.9c0,1.1,0,1.7,0,2.8l14.1,14.1c1.1,0,1.7,0,2.8,0l25.5-25.4l25.5,25.5c1.1,0,1.7,0,2.8,0l14.1-14.1c0-1.1,0-1.7,0-2.8
	L59.4,42.4l25.5-25.5C84.8,15.8,84.8,15.2,84.8,14.1z"/>
</svg>
