<?xml version="1.0" encoding="utf-8"?>
<!-- Generator: Adobe Illustrator 24.2.3, SVG Export Plug-In . SVG Version: 6.00 Build 0)  -->
<svg version="1.1" id="Layer_1" xmlns="http://www.w3.org/2000/svg" xmlns:xlink="http://www.w3.org/1999/xlink" x="0px" y="0px"
	 viewBox="0 0 100 78" style="enable-background:new 0 0 100 78;" xml:space="preserve">
<style type="text/css">
	.st0{fill:#FFF8E3;}
</style>
<path class="st0" d="M91.5,30h-83C3.8,30,0,33.8,0,38.5S3.8,48,8.5,48h83.1c4.7,0,8.5-4.7,8.5-9.5S96.2,30,91.5,30z M8.5,18h83.1
	c4.7,0,8.5-4.7,8.5-9.5S96.2,0,91.5,0h-83C3.8,0,0,3.8,0,8.5S3.8,18,8.5,18z M91.5,60h-83C3.8,60,0,63.8,0,68.5S3.8,78,8.5,78h83.1
	c4.7,0,8.5-4.7,8.5-9.5S96.2,60,91.5,60z"/>
</svg>
