<?xml version="1.0" encoding="utf-8"?>
<!-- Generator: Adobe Illustrator 24.2.3, SVG Export Plug-In . SVG Version: 6.00 Build 0)  -->
<svg version="1.1" id="Layer_1" xmlns="http://www.w3.org/2000/svg" xmlns:xlink="http://www.w3.org/1999/xlink" x="0px" y="0px"
	 viewBox="0 0 702.11 187.28" style="enable-background:new 0 0 702.11 187.28;" xml:space="preserve">
<style type="text/css">
	.st0{fill:#6E431A;}
	.st1{fill:#688D52;}
</style>
<g>
	<path class="st0" d="M133.46,102.47c-0.24,0-0.57-0.03-0.99-0.09c-0.42-0.06-0.69-0.09-0.8-0.09c-2.39,0-4.3,1.2-5.74,3.58
		c-1.43,2.39-2.72,5.37-3.85,8.96c-1.14,3.58-2.27,7.47-3.4,11.65c-1.14,4.18-2.66,8.06-4.57,11.65s-4.36,6.57-7.35,8.96
		c-2.99,2.39-6.87,3.58-11.65,3.58c-2.75,0-5.46-0.81-8.15-2.42c-2.69-1.61-5.32-3.67-7.88-6.18c-2.57-2.51-5.05-5.31-7.44-8.42
		c-2.39-3.1-4.69-6.18-6.9-9.23c-2.21-3.05-4.3-5.85-6.27-8.42c-1.97-2.57-3.8-4.63-5.47-6.18c-0.96,3.82-2.03,8.24-3.22,13.26
		c-1.2,5.02-2.9,9.83-5.11,14.42c-2.21,4.6-5.13,8.48-8.78,11.65c-3.64,3.17-8.33,4.75-14.06,4.75c-0.24,0-0.57-0.03-0.99-0.09
		c-0.42-0.06-0.69-0.09-0.8-0.09c-0.36-0.24-0.99-0.81-1.88-1.7c-0.9-0.9-1.46-1.52-1.7-1.88c0-0.48-0.03-1.34-0.09-2.6
		c-0.06-1.25-0.09-2.54-0.09-3.85c0-1.31-0.03-2.6-0.09-3.85c-0.06-1.25-0.09-2.12-0.09-2.6c0-0.72,0.03-1.76,0.09-3.14
		c0.06-1.37,0.09-2.72,0.09-4.03c0-1.43,0.03-2.66,0.09-3.67c0.06-1.01,0.09-1.64,0.09-1.88c0.24-2.39,0.56-5.31,0.98-8.78
		c0.42-3.46,0.87-7.05,1.35-10.75c0.47-3.7,0.98-7.44,1.52-11.2s1.04-7.13,1.52-10.12c0.48-2.98,0.9-5.43,1.25-7.35
		c0.36-1.91,0.6-2.93,0.72-3.05l21.86-21.86c0.12-0.12,0.36-0.18,0.72-0.18s0.66,0,0.9,0c4.42,0,8.15,1.73,11.2,5.2
		c3.05,3.46,5.7,7.77,7.97,12.9c2.27,5.14,4.33,10.75,6.18,16.84c1.85,6.09,3.79,11.71,5.82,16.84c2.03,5.14,4.36,9.44,6.99,12.9
		c2.63,3.46,5.85,5.2,9.67,5.2c0.12,0,0.39-0.03,0.81-0.09c0.42-0.06,0.74-0.15,0.98-0.27c1.79-2.51,3.19-5.7,4.21-9.59
		c1.01-3.88,1.91-8,2.69-12.36c0.77-4.36,1.58-8.72,2.42-13.08c0.84-4.36,1.97-8.3,3.4-11.82c1.43-3.52,3.29-6.39,5.55-8.6
		c2.27-2.21,5.31-3.31,9.14-3.31c0.36,0,1.25,0.03,2.69,0.09c1.43,0.06,2.33,0.15,2.69,0.27c5.13,3.94,9.34,8.09,12.63,12.45
		c3.28,4.36,6,8.84,8.15,13.44c2.15,4.6,3.94,9.29,5.37,14.06c1.43,4.78,2.92,9.62,4.48,14.51c1.55,4.9,3.34,9.83,5.37,14.78
		c2.03,4.96,4.66,9.88,7.88,14.78c1.31,2.03,2.95,3.56,4.93,4.57c1.97,1.02,4.03,1.94,6.18,2.78c2.15,0.84,4.21,1.76,6.18,2.78
		c1.97,1.02,3.55,2.54,4.75,4.57c-3.11,4.06-6.39,6.96-9.85,8.69c-3.46,1.73-7.7,2.6-12.72,2.6c-3.82,0-7.05-0.99-9.67-2.96
		c-2.63-1.97-4.87-4.45-6.72-7.44s-3.46-6.21-4.84-9.67c-1.37-3.46-2.66-6.63-3.85-9.5c-0.6-1.43-1.59-4.06-2.96-7.88
		c-1.38-3.82-2.84-7.88-4.39-12.18c-1.55-4.3-3.02-8.36-4.39-12.18C134.86,106.71,133.94,104.03,133.46,102.47z"/>
	<path class="st0" d="M242.21,124.51c-6.69,0-12.16,0.63-16.39,1.88c-4.24,1.25-7.74,2.87-10.48,4.84
		c-2.75,1.97-4.99,4.06-6.72,6.27c-1.73,2.21-3.43,4.3-5.11,6.27c-1.67,1.97-3.58,3.58-5.73,4.84c-2.15,1.25-4.96,1.88-8.42,1.88
		c-0.72,0-1.64,0.03-2.78,0.09c-1.14,0.06-2.3,0-3.49-0.18c-1.19-0.18-2.27-0.54-3.22-1.07c-0.96-0.54-1.55-1.46-1.79-2.78
		c0-0.48-0.03-1.34-0.09-2.6c-0.06-1.25-0.12-2.54-0.18-3.85c-0.06-1.31-0.09-2.57-0.09-3.76c0-1.31,0-2.21,0-2.69
		c0-4.42,0.3-7.79,0.9-10.12c0.6-2.33,1.43-4.39,2.51-6.18s2.3-3.73,3.67-5.82c1.37-2.09,2.78-5.05,4.21-8.87
		c0.6-1.67,1.25-4.18,1.97-7.52c0.72-3.34,1.55-7.04,2.51-11.11c0.96-4.06,2.12-8.24,3.49-12.54c1.37-4.3,3.02-8.18,4.93-11.65
		c1.91-3.46,4.21-6.33,6.9-8.6c2.69-2.27,5.82-3.4,9.41-3.4c3.94,0,7.37,1.14,10.3,3.4c2.92,2.27,5.61,5.17,8.06,8.69
		c2.45,3.52,4.75,7.44,6.9,11.74s4.33,8.48,6.54,12.54c2.21,4.06,4.6,7.77,7.17,11.11c2.57,3.35,5.46,5.8,8.69,7.35
		c0.6,0.36,1.76,0.63,3.49,0.81c1.73,0.18,3.58,0.51,5.55,0.99c1.97,0.48,3.85,1.14,5.64,1.97c1.79,0.84,2.99,2.03,3.58,3.58
		c-2.39,1.19-4.3,2.33-5.73,3.4s-2.6,2.24-3.49,3.49s-1.49,2.63-1.79,4.12c-0.3,1.49-0.45,3.2-0.45,5.11c0,2.39,0.42,4.45,1.25,6.18
		c0.84,1.73,1.79,3.43,2.87,5.11c1.07,1.67,2.03,3.38,2.87,5.11c0.84,1.73,1.25,3.74,1.25,6c0,3.7-1.07,6.15-3.22,7.35
		c-2.15,1.19-4.96,1.79-8.42,1.79c-2.63,0-4.78-0.81-6.45-2.42c-1.67-1.61-3.08-3.67-4.21-6.18c-1.14-2.51-2.12-5.17-2.96-7.97
		c-0.84-2.8-1.82-5.46-2.96-7.97c-1.14-2.51-2.51-4.57-4.12-6.18C246.96,125.32,244.84,124.51,242.21,124.51z M214.27,91.72
		c0,2.87,0.03,5.26,0.09,7.17c0.06,1.91,0.45,3.44,1.16,4.57c0.72,1.14,1.85,1.94,3.4,2.42c1.55,0.48,3.76,0.72,6.63,0.72
		c1.07,0,2.27,0,3.58,0c1.31,0,2.54-0.18,3.67-0.54c1.13-0.36,2.09-0.92,2.87-1.7c0.78-0.77,1.16-1.94,1.16-3.49
		c0-0.24-0.03-0.6-0.09-1.07c-0.06-0.48-0.15-0.72-0.27-0.72c-0.48-0.83-1.41-2.33-2.78-4.48c-1.38-2.15-2.84-4.39-4.39-6.72
		c-1.55-2.33-3.02-4.51-4.39-6.54c-1.38-2.03-2.36-3.46-2.96-4.3c-0.24,0-0.57-0.03-0.99-0.09c-0.42-0.06-0.69-0.09-0.81-0.09
		c-2.03,0-3.47,0.57-4.3,1.7c-0.84,1.14-1.38,2.51-1.61,4.12c-0.24,1.61-0.3,3.26-0.18,4.93C214.2,89.28,214.27,90.65,214.27,91.72z
		"/>
	<path class="st0" d="M281.63,108.03c0-1.55-0.03-3.25-0.09-5.11c-0.06-1.85,0-3.67,0.18-5.46s0.54-3.49,1.07-5.11
		c0.54-1.61,1.46-3.07,2.78-4.39l40.31-40.31c0.24-0.24,0.83-0.57,1.79-0.99c0.95-0.42,2.03-0.81,3.22-1.16
		c1.19-0.36,2.33-0.69,3.4-0.99c1.07-0.3,1.91-0.45,2.51-0.45c2.15,0,4.3,0.42,6.45,1.25c2.15,0.84,4.12,2,5.91,3.49
		c1.79,1.49,3.25,3.26,4.39,5.29c1.13,2.03,1.7,4.18,1.7,6.45c0,1.07-0.24,2.33-0.72,3.76c-0.48,1.43-1.14,2.84-1.97,4.21
		c-0.84,1.37-1.82,2.54-2.96,3.49c-1.14,0.96-2.36,1.43-3.67,1.43c-1.07,0-1.91-0.21-2.51-0.63c-0.6-0.42-1.19-0.9-1.79-1.43
		c-0.6-0.54-1.23-1.01-1.88-1.43c-0.66-0.42-1.59-0.63-2.78-0.63c-3.47,0-6.84,1.05-10.12,3.14c-3.29,2.09-6.42,4.57-9.41,7.44
		c-2.99,2.87-5.64,5.77-7.97,8.69c-2.33,2.93-4.21,5.17-5.64,6.72c0,0.36-0.03,1.07-0.09,2.15c-0.06,1.07-0.12,2.18-0.18,3.31
		c-0.06,1.14-0.12,2.24-0.18,3.31c-0.06,1.08-0.09,1.79-0.09,2.15c0,4.9,0.78,8.81,2.33,11.74c1.55,2.93,3.67,5.17,6.36,6.72
		c2.69,1.55,5.88,2.57,9.59,3.05c3.7,0.48,7.7,0.72,12,0.72c4.54,0,8.96-0.45,13.26-1.34c4.3-0.9,8.57-1.85,12.81-2.87
		c4.24-1.01,8.51-1.97,12.81-2.87s8.66-1.34,13.08-1.34c0,3.58-1.19,6.63-3.58,9.14c-2.39,2.51-5.49,4.63-9.32,6.36
		c-3.82,1.73-8.09,3.11-12.81,4.12c-4.72,1.02-9.41,1.76-14.06,2.24c-4.66,0.48-9.02,0.81-13.08,0.99
		c-4.06,0.18-7.35,0.27-9.85,0.27c-6.09,0-11.68-0.65-16.75-1.97c-5.08-1.31-9.44-3.37-13.08-6.18c-3.64-2.81-6.45-6.42-8.42-10.84
		C282.61,119.73,281.63,114.36,281.63,108.03z"/>
	<path class="st0" d="M381.6,91.54c0-5.02,2.57-7.52,7.7-7.52c3.82,0,6.87,1.2,9.14,3.58c2.27,2.39,4.12,5.35,5.55,8.87
		c1.43,3.53,2.57,7.38,3.4,11.56c0.84,4.18,1.76,8.03,2.78,11.56c1.01,3.52,2.27,6.48,3.76,8.87c1.49,2.39,3.55,3.58,6.18,3.58
		c0.24,0,0.56-0.03,0.99-0.09c0.42-0.06,0.68-0.09,0.81-0.09c1.19-1.07,3.19-2.99,6-5.73c2.8-2.75,5.76-5.67,8.87-8.78
		c3.1-3.1,6.03-6.06,8.78-8.87c2.75-2.81,4.66-4.75,5.73-5.82c1.79-1.91,4-4.63,6.63-8.15c2.63-3.52,5.55-7.31,8.78-11.38
		c3.22-4.06,6.63-8.21,10.21-12.45c3.58-4.24,7.23-8.06,10.93-11.47c3.7-3.4,7.4-6.21,11.11-8.42c3.7-2.21,7.22-3.31,10.57-3.31
		c1.91,0,3.67,0.39,5.29,1.16c1.61,0.78,2.42,2.3,2.42,4.57c0,0.24-0.03,0.57-0.09,0.99c-0.06,0.42-0.09,0.69-0.09,0.81
		c-3.22,2.15-7.17,4.99-11.82,8.51c-4.66,3.52-9.17,7.38-13.53,11.56c-4.36,4.18-8.06,8.51-11.11,12.99
		c-3.05,4.48-4.57,8.81-4.57,12.99c0,3.47,1.82,6,5.46,7.62c3.64,1.61,8.21,2.81,13.71,3.58c5.49,0.78,11.47,1.31,17.92,1.61
		c6.45,0.3,12.42,0.84,17.92,1.61c5.49,0.78,10.06,1.94,13.71,3.49c3.64,1.55,5.46,4,5.46,7.35c0,0.24-0.03,0.6-0.09,1.07
		c-0.06,0.48-0.09,0.78-0.09,0.9c-0.24,0.36-0.84,0.99-1.79,1.88c-0.96,0.9-1.61,1.46-1.97,1.7c-1.31,0.12-3.7,0.36-7.17,0.72
		c-3.46,0.36-7.14,0.75-11.02,1.16c-3.88,0.42-7.56,0.78-11.02,1.07c-3.47,0.3-5.91,0.51-7.35,0.63c-0.12,0-0.42,0.03-0.9,0.09
		c-0.48,0.06-0.84,0.09-1.07,0.09c-0.24,0-0.78-0.06-1.61-0.18c-0.72-0.12-2.09-0.36-4.12-0.72c-2.03-0.36-4.45-0.78-7.26-1.25
		c-2.81-0.48-5.73-1.01-8.78-1.61c-3.05-0.6-5.97-1.13-8.78-1.61c-2.81-0.48-5.23-0.9-7.26-1.25c-2.03-0.36-3.4-0.6-4.12-0.72
		c-0.24-0.12-0.87-0.21-1.88-0.27c-1.02-0.06-1.76-0.09-2.24-0.09c-0.48,0-1.11,0.03-1.88,0.09c-0.78,0.06-1.23,0.15-1.34,0.27
		l-32.79,21.86c-0.12,0-0.57,0.03-1.34,0.09c-0.78,0.06-1.64,0.12-2.6,0.18c-0.96,0.06-1.94,0.12-2.96,0.18
		c-1.02,0.06-1.82,0.09-2.42,0.09c-6.09,0-11.35-2.12-15.77-6.36c-4.42-4.24-8.03-9.41-10.84-15.5c-2.81-6.09-4.87-12.54-6.18-19.35
		C382.25,102.65,381.6,96.68,381.6,91.54z"/>
	<path class="st0" d="M592.66,138.84c-3.47,0-6.63,0.78-9.5,2.33c-2.87,1.55-5.64,3.29-8.33,5.2c-2.69,1.91-5.37,3.65-8.06,5.2
		c-2.69,1.55-5.64,2.33-8.87,2.33c-3.58,0-6.45-0.45-8.6-1.34c-2.15-0.9-3.82-2.21-5.02-3.94c-1.19-1.73-2-3.79-2.42-6.18
		c-0.42-2.39-0.63-5.08-0.63-8.06c0-20.18,2.27-39.92,6.81-59.21c4.54-19.29,10.87-38.19,18.99-56.71c0.12-0.48,0.48-0.95,1.08-1.43
		c0.6-0.48,1.28-0.9,2.06-1.25c0.78-0.36,1.55-0.63,2.33-0.81c0.78-0.18,1.4-0.21,1.88-0.09c3.7,1.55,6.87,4.39,9.5,8.51
		c2.63,4.12,4.98,8.99,7.08,14.6c2.09,5.61,3.97,11.71,5.64,18.27c1.67,6.57,3.37,12.99,5.11,19.26c1.73,6.27,3.61,12.13,5.64,17.56
		c2.03,5.44,4.42,9.83,7.17,13.17c1.19,1.43,2.84,2.48,4.93,3.14c2.09,0.66,4.39,1.16,6.9,1.52c2.51,0.36,5.05,0.66,7.61,0.9
		c2.57,0.24,4.9,0.69,6.99,1.34c2.09,0.66,3.79,1.58,5.11,2.78c1.31,1.19,1.97,2.93,1.97,5.2c0,2.75-1.02,4.69-3.05,5.82
		c-2.03,1.14-4.24,2.12-6.63,2.96c-2.39,0.84-4.6,1.88-6.63,3.14c-2.03,1.25-3.05,3.43-3.05,6.54c0,0.48,0.06,1.11,0.18,1.88
		c0.12,0.78,0.24,1.23,0.36,1.34l18.27,18.27c0,0.12,0.03,0.57,0.09,1.34c0.06,0.78,0.09,1.4,0.09,1.88c0,4.18-1.11,7.79-3.31,10.84
		c-2.21,3.05-5.46,4.57-9.76,4.57c-3.34,0-6.21-1.02-8.6-3.05c-2.39-2.03-4.51-4.54-6.36-7.52c-1.85-2.99-3.61-6.27-5.29-9.85
		c-1.67-3.58-3.49-6.87-5.46-9.85c-1.97-2.98-4.24-5.49-6.81-7.52C599.49,139.86,596.36,138.84,592.66,138.84z M570.26,98.89
		c0,1.43-0.06,3.14-0.18,5.11c-0.12,1.97-0.09,4,0.09,6.09c0.18,2.09,0.57,4.09,1.16,6c0.6,1.91,1.61,3.52,3.05,4.84
		c1.19-0.36,2.63-0.96,4.3-1.79c1.67-0.84,3.28-1.82,4.84-2.96c1.55-1.13,2.87-2.39,3.94-3.76c1.07-1.37,1.61-2.78,1.61-4.21
		c0-0.24,0-0.6,0-1.07c0-0.48-0.06-0.78-0.18-0.9c-0.36-1.07-1.07-2.87-2.15-5.38c-1.08-2.51-2.18-5.11-3.31-7.79
		c-1.14-2.69-2.24-5.22-3.31-7.61c-1.08-2.39-1.79-4-2.15-4.84c-0.24-0.36-0.81-0.99-1.7-1.88c-0.9-0.9-1.52-1.46-1.88-1.7
		c-1.43,1.32-2.45,2.93-3.05,4.84c-0.6,1.91-0.99,3.88-1.16,5.91c-0.18,2.03-0.21,4.03-0.09,6
		C570.2,95.75,570.26,97.45,570.26,98.89z"/>
	<path class="st0" d="M646.76,141.17c0-3.82,0.72-6.36,2.15-7.61c1.43-1.25,4.06-1.88,7.88-1.88c2.39,0,4.42,0.24,6.09,0.72
		c1.67,0.48,3.22,1.28,4.66,2.42c1.43,1.14,2.84,2.66,4.21,4.57c1.37,1.91,2.9,4.3,4.57,7.17c-0.72,1.79-1.52,3.22-2.42,4.3
		s-1.82,1.85-2.78,2.33c-0.96,0.48-2.03,0.78-3.22,0.9c-1.19,0.12-2.51,0.18-3.94,0.18c-2.27,0-4.42-0.24-6.45-0.72
		c-2.03-0.48-3.85-1.22-5.46-2.24c-1.61-1.01-2.9-2.36-3.85-4.03C647.24,145.59,646.76,143.56,646.76,141.17z"/>
</g>
<g>
	<path class="st1" d="M143.25,96.02c-0.24,0-0.57-0.03-0.99-0.09c-0.42-0.06-0.69-0.09-0.8-0.09c-2.39,0-4.3,1.2-5.74,3.58
		c-1.43,2.39-2.72,5.37-3.85,8.96c-1.14,3.58-2.27,7.47-3.4,11.65c-1.14,4.18-2.66,8.06-4.57,11.65c-1.91,3.58-4.36,6.57-7.35,8.96
		c-2.99,2.39-6.87,3.58-11.65,3.58c-2.75,0-5.46-0.81-8.15-2.42c-2.69-1.61-5.32-3.67-7.88-6.18c-2.57-2.51-5.05-5.31-7.44-8.42
		c-2.39-3.1-4.69-6.18-6.9-9.23c-2.21-3.05-4.3-5.85-6.27-8.42c-1.97-2.57-3.8-4.63-5.47-6.18c-0.96,3.82-2.03,8.24-3.22,13.26
		c-1.2,5.02-2.9,9.83-5.11,14.42c-2.21,4.6-5.13,8.48-8.78,11.65c-3.64,3.17-8.33,4.75-14.06,4.75c-0.24,0-0.57-0.03-0.99-0.09
		c-0.42-0.06-0.69-0.09-0.8-0.09c-0.36-0.24-0.99-0.81-1.88-1.7c-0.9-0.9-1.46-1.52-1.7-1.88c0-0.48-0.03-1.34-0.09-2.6
		c-0.06-1.25-0.09-2.54-0.09-3.85c0-1.31-0.03-2.6-0.09-3.85c-0.06-1.25-0.09-2.12-0.09-2.6c0-0.72,0.03-1.76,0.09-3.14
		c0.06-1.37,0.09-2.72,0.09-4.03c0-1.43,0.03-2.66,0.09-3.67c0.06-1.01,0.09-1.64,0.09-1.88c0.24-2.39,0.56-5.31,0.98-8.78
		c0.42-3.46,0.87-7.05,1.35-10.75c0.47-3.7,0.98-7.44,1.52-11.2c0.54-3.76,1.04-7.13,1.52-10.12c0.48-2.98,0.9-5.43,1.25-7.35
		c0.36-1.91,0.6-2.93,0.72-3.05l21.86-21.86c0.12-0.12,0.36-0.18,0.72-0.18s0.66,0,0.9,0c4.42,0,8.15,1.73,11.2,5.2
		c3.05,3.46,5.7,7.77,7.97,12.9c2.27,5.14,4.33,10.75,6.18,16.84c1.85,6.09,3.79,11.71,5.82,16.84c2.03,5.14,4.36,9.44,6.99,12.9
		c2.63,3.46,5.85,5.2,9.67,5.2c0.12,0,0.39-0.03,0.81-0.09c0.42-0.06,0.74-0.15,0.98-0.27c1.79-2.51,3.19-5.7,4.21-9.59
		c1.01-3.88,1.91-8,2.69-12.36c0.77-4.36,1.58-8.72,2.42-13.08c0.84-4.36,1.97-8.3,3.4-11.82c1.43-3.52,3.29-6.39,5.55-8.6
		c2.27-2.21,5.31-3.31,9.14-3.31c0.36,0,1.25,0.03,2.69,0.09c1.43,0.06,2.33,0.15,2.69,0.27c5.13,3.94,9.34,8.09,12.63,12.45
		c3.28,4.36,6,8.84,8.15,13.44c2.15,4.6,3.94,9.29,5.37,14.06c1.43,4.78,2.92,9.62,4.48,14.51c1.55,4.9,3.34,9.83,5.37,14.78
		c2.03,4.96,4.66,9.88,7.88,14.78c1.31,2.03,2.95,3.56,4.93,4.57c1.97,1.02,4.03,1.94,6.18,2.78c2.15,0.84,4.21,1.76,6.18,2.78
		c1.97,1.02,3.55,2.54,4.75,4.57c-3.11,4.06-6.39,6.96-9.85,8.69c-3.46,1.73-7.7,2.6-12.72,2.6c-3.82,0-7.05-0.99-9.67-2.96
		c-2.63-1.97-4.87-4.45-6.72-7.44s-3.46-6.21-4.84-9.67c-1.37-3.46-2.66-6.63-3.85-9.5c-0.6-1.43-1.59-4.06-2.96-7.88
		c-1.38-3.82-2.84-7.88-4.39-12.18c-1.55-4.3-3.02-8.36-4.39-12.18C144.65,100.26,143.72,97.57,143.25,96.02z"/>
	<path class="st1" d="M252,118.06c-6.69,0-12.16,0.63-16.39,1.88c-4.24,1.25-7.74,2.87-10.48,4.84c-2.75,1.97-4.99,4.06-6.72,6.27
		c-1.73,2.21-3.43,4.3-5.11,6.27c-1.67,1.97-3.58,3.58-5.73,4.84c-2.15,1.25-4.96,1.88-8.42,1.88c-0.72,0-1.64,0.03-2.78,0.09
		c-1.14,0.06-2.3,0-3.49-0.18c-1.19-0.18-2.27-0.54-3.22-1.07c-0.96-0.54-1.55-1.46-1.79-2.78c0-0.48-0.03-1.34-0.09-2.6
		c-0.06-1.25-0.12-2.54-0.18-3.85c-0.06-1.31-0.09-2.57-0.09-3.76c0-1.31,0-2.21,0-2.69c0-4.42,0.3-7.79,0.9-10.12
		c0.6-2.33,1.43-4.39,2.51-6.18c1.07-1.79,2.3-3.73,3.67-5.82c1.37-2.09,2.78-5.05,4.21-8.87c0.6-1.67,1.25-4.18,1.97-7.52
		c0.72-3.34,1.55-7.04,2.51-11.11c0.96-4.06,2.12-8.24,3.49-12.54c1.37-4.3,3.02-8.18,4.93-11.65c1.91-3.46,4.21-6.33,6.9-8.6
		c2.69-2.27,5.82-3.4,9.41-3.4c3.94,0,7.37,1.14,10.3,3.4c2.92,2.27,5.61,5.17,8.06,8.69c2.45,3.52,4.75,7.44,6.9,11.74
		s4.33,8.48,6.54,12.54c2.21,4.06,4.6,7.77,7.17,11.11c2.57,3.35,5.46,5.8,8.69,7.35c0.6,0.36,1.76,0.63,3.49,0.81
		c1.73,0.18,3.58,0.51,5.55,0.99c1.97,0.48,3.85,1.14,5.64,1.97c1.79,0.84,2.99,2.03,3.58,3.58c-2.39,1.19-4.3,2.33-5.73,3.4
		s-2.6,2.24-3.49,3.49s-1.49,2.63-1.79,4.12c-0.3,1.49-0.45,3.2-0.45,5.11c0,2.39,0.42,4.45,1.25,6.18
		c0.84,1.73,1.79,3.43,2.87,5.11c1.07,1.67,2.03,3.38,2.87,5.11c0.84,1.73,1.25,3.74,1.25,6c0,3.7-1.07,6.15-3.22,7.35
		c-2.15,1.19-4.96,1.79-8.42,1.79c-2.63,0-4.78-0.81-6.45-2.42c-1.67-1.61-3.08-3.67-4.21-6.18c-1.14-2.51-2.12-5.17-2.96-7.97
		c-0.84-2.8-1.82-5.46-2.96-7.97c-1.14-2.51-2.51-4.57-4.12-6.18C256.75,118.86,254.63,118.06,252,118.06z M224.05,85.27
		c0,2.87,0.03,5.26,0.09,7.17c0.06,1.91,0.45,3.44,1.16,4.57c0.72,1.14,1.85,1.94,3.4,2.42c1.55,0.48,3.76,0.72,6.63,0.72
		c1.07,0,2.27,0,3.58,0c1.31,0,2.54-0.18,3.67-0.54c1.13-0.36,2.09-0.92,2.87-1.7c0.78-0.77,1.16-1.94,1.16-3.49
		c0-0.24-0.03-0.6-0.09-1.07c-0.06-0.48-0.15-0.72-0.27-0.72c-0.48-0.83-1.41-2.33-2.78-4.48c-1.38-2.15-2.84-4.39-4.39-6.72
		c-1.55-2.33-3.02-4.51-4.39-6.54c-1.38-2.03-2.36-3.46-2.96-4.3c-0.24,0-0.57-0.03-0.99-0.09c-0.42-0.06-0.69-0.09-0.81-0.09
		c-2.03,0-3.47,0.57-4.3,1.7c-0.84,1.14-1.38,2.51-1.61,4.12c-0.24,1.61-0.3,3.26-0.18,4.93C223.99,82.82,224.05,84.19,224.05,85.27
		z"/>
	<path class="st1" d="M291.42,101.57c0-1.55-0.03-3.25-0.09-5.11c-0.06-1.85,0-3.67,0.18-5.46c0.18-1.79,0.54-3.49,1.07-5.11
		c0.54-1.61,1.46-3.07,2.78-4.39l40.31-40.31c0.24-0.24,0.83-0.57,1.79-0.99c0.95-0.42,2.03-0.81,3.22-1.16
		c1.19-0.36,2.33-0.69,3.4-0.99c1.07-0.3,1.91-0.45,2.51-0.45c2.15,0,4.3,0.42,6.45,1.25c2.15,0.84,4.12,2,5.91,3.49
		c1.79,1.49,3.25,3.26,4.39,5.29c1.13,2.03,1.7,4.18,1.7,6.45c0,1.07-0.24,2.33-0.72,3.76c-0.48,1.43-1.14,2.84-1.97,4.21
		c-0.84,1.37-1.82,2.54-2.96,3.49c-1.14,0.96-2.36,1.43-3.67,1.43c-1.07,0-1.91-0.21-2.51-0.63c-0.6-0.42-1.19-0.9-1.79-1.43
		c-0.6-0.54-1.23-1.01-1.88-1.43c-0.66-0.42-1.59-0.63-2.78-0.63c-3.47,0-6.84,1.05-10.12,3.14c-3.29,2.09-6.42,4.57-9.41,7.44
		c-2.99,2.87-5.64,5.77-7.97,8.69c-2.33,2.93-4.21,5.17-5.64,6.72c0,0.36-0.03,1.07-0.09,2.15c-0.06,1.07-0.12,2.18-0.18,3.31
		c-0.06,1.14-0.12,2.24-0.18,3.31c-0.06,1.08-0.09,1.79-0.09,2.15c0,4.9,0.78,8.81,2.33,11.74c1.55,2.93,3.67,5.17,6.36,6.72
		c2.69,1.55,5.88,2.57,9.59,3.05c3.7,0.48,7.7,0.72,12,0.72c4.54,0,8.96-0.45,13.26-1.34s8.57-1.85,12.81-2.87
		c4.24-1.01,8.51-1.97,12.81-2.87s8.66-1.34,13.08-1.34c0,3.58-1.19,6.63-3.58,9.14c-2.39,2.51-5.49,4.63-9.32,6.36
		c-3.82,1.73-8.09,3.11-12.81,4.12c-4.72,1.02-9.41,1.76-14.06,2.24c-4.66,0.48-9.02,0.81-13.08,0.99
		c-4.06,0.18-7.35,0.27-9.85,0.27c-6.09,0-11.68-0.65-16.75-1.97c-5.08-1.31-9.44-3.37-13.08-6.18c-3.64-2.81-6.45-6.42-8.42-10.84
		C292.4,113.28,291.42,107.91,291.42,101.57z"/>
	<path class="st1" d="M391.39,85.09c0-5.02,2.57-7.52,7.7-7.52c3.82,0,6.87,1.2,9.14,3.58c2.27,2.39,4.12,5.35,5.55,8.87
		c1.43,3.53,2.57,7.38,3.4,11.56c0.84,4.18,1.76,8.03,2.78,11.56c1.01,3.52,2.27,6.48,3.76,8.87c1.49,2.39,3.55,3.58,6.18,3.58
		c0.24,0,0.56-0.03,0.99-0.09c0.42-0.06,0.68-0.09,0.81-0.09c1.19-1.07,3.19-2.99,6-5.73c2.8-2.75,5.76-5.67,8.87-8.78
		c3.1-3.1,6.03-6.06,8.78-8.87c2.75-2.81,4.66-4.75,5.73-5.82c1.79-1.91,4-4.63,6.63-8.15c2.63-3.52,5.55-7.31,8.78-11.38
		c3.22-4.06,6.63-8.21,10.21-12.45c3.58-4.24,7.23-8.06,10.93-11.47c3.7-3.4,7.4-6.21,11.11-8.42c3.7-2.21,7.22-3.31,10.57-3.31
		c1.91,0,3.67,0.39,5.29,1.16c1.61,0.78,2.42,2.3,2.42,4.57c0,0.24-0.03,0.57-0.09,0.99c-0.06,0.42-0.09,0.69-0.09,0.81
		c-3.22,2.15-7.17,4.99-11.82,8.51c-4.66,3.52-9.17,7.38-13.53,11.56c-4.36,4.18-8.06,8.51-11.11,12.99s-4.57,8.81-4.57,12.99
		c0,3.47,1.82,6,5.46,7.62c3.64,1.61,8.21,2.81,13.71,3.58c5.49,0.78,11.47,1.31,17.92,1.61c6.45,0.3,12.42,0.84,17.92,1.61
		c5.49,0.78,10.06,1.94,13.71,3.49c3.64,1.55,5.46,4,5.46,7.35c0,0.24-0.03,0.6-0.09,1.07c-0.06,0.48-0.09,0.78-0.09,0.9
		c-0.24,0.36-0.84,0.99-1.79,1.88c-0.96,0.9-1.61,1.46-1.97,1.7c-1.31,0.12-3.7,0.36-7.17,0.72c-3.46,0.36-7.14,0.75-11.02,1.16
		c-3.88,0.42-7.56,0.78-11.02,1.07c-3.47,0.3-5.91,0.51-7.35,0.63c-0.12,0-0.42,0.03-0.9,0.09c-0.48,0.06-0.84,0.09-1.07,0.09
		c-0.24,0-0.78-0.06-1.61-0.18c-0.72-0.12-2.09-0.36-4.12-0.72c-2.03-0.36-4.45-0.78-7.26-1.25c-2.81-0.48-5.73-1.01-8.78-1.61
		c-3.05-0.6-5.97-1.13-8.78-1.61c-2.81-0.48-5.23-0.9-7.26-1.25c-2.03-0.36-3.4-0.6-4.12-0.72c-0.24-0.12-0.87-0.21-1.88-0.27
		c-1.02-0.06-1.76-0.09-2.24-0.09c-0.48,0-1.11,0.03-1.88,0.09c-0.78,0.06-1.23,0.15-1.34,0.27l-32.79,21.86
		c-0.12,0-0.57,0.03-1.34,0.09c-0.78,0.06-1.64,0.12-2.6,0.18c-0.96,0.06-1.94,0.12-2.96,0.18c-1.02,0.06-1.82,0.09-2.42,0.09
		c-6.09,0-11.35-2.12-15.77-6.36c-4.42-4.24-8.03-9.41-10.84-15.5c-2.81-6.09-4.87-12.54-6.18-19.35
		C392.04,96.2,391.39,90.23,391.39,85.09z"/>
	<path class="st1" d="M602.44,132.39c-3.47,0-6.63,0.78-9.5,2.33c-2.87,1.55-5.64,3.29-8.33,5.2c-2.69,1.91-5.37,3.65-8.06,5.2
		c-2.69,1.55-5.64,2.33-8.87,2.33c-3.58,0-6.45-0.45-8.6-1.34c-2.15-0.9-3.82-2.21-5.02-3.94c-1.19-1.73-2-3.79-2.42-6.18
		c-0.42-2.39-0.63-5.08-0.63-8.06c0-20.18,2.27-39.92,6.81-59.21c4.54-19.29,10.87-38.19,18.99-56.71c0.12-0.48,0.48-0.95,1.07-1.43
		c0.6-0.48,1.28-0.9,2.06-1.25c0.78-0.36,1.55-0.63,2.33-0.81c0.78-0.18,1.4-0.21,1.88-0.09c3.7,1.55,6.87,4.39,9.5,8.51
		c2.63,4.12,4.98,8.99,7.08,14.6c2.09,5.61,3.97,11.71,5.64,18.27c1.67,6.57,3.37,12.99,5.11,19.26c1.73,6.27,3.61,12.13,5.64,17.56
		c2.03,5.44,4.42,9.83,7.17,13.17c1.19,1.43,2.84,2.48,4.93,3.14c2.09,0.66,4.39,1.16,6.9,1.52s5.05,0.66,7.61,0.9
		c2.57,0.24,4.9,0.69,6.99,1.34c2.09,0.66,3.79,1.58,5.11,2.78c1.31,1.19,1.97,2.93,1.97,5.2c0,2.75-1.02,4.69-3.05,5.82
		c-2.03,1.14-4.24,2.12-6.63,2.96c-2.39,0.84-4.6,1.88-6.63,3.14c-2.03,1.25-3.05,3.43-3.05,6.54c0,0.48,0.06,1.11,0.18,1.88
		c0.12,0.78,0.24,1.23,0.36,1.34l18.27,18.27c0,0.12,0.03,0.57,0.09,1.34c0.06,0.78,0.09,1.4,0.09,1.88c0,4.18-1.11,7.79-3.31,10.84
		c-2.21,3.05-5.46,4.57-9.76,4.57c-3.34,0-6.21-1.02-8.6-3.05c-2.39-2.03-4.51-4.54-6.36-7.52c-1.85-2.99-3.61-6.27-5.29-9.85
		c-1.67-3.58-3.49-6.87-5.46-9.85c-1.97-2.98-4.24-5.49-6.81-7.52C609.28,133.41,606.14,132.39,602.44,132.39z M580.05,92.44
		c0,1.43-0.06,3.14-0.18,5.11c-0.12,1.97-0.09,4,0.09,6.09c0.18,2.09,0.57,4.09,1.16,6c0.6,1.91,1.61,3.52,3.05,4.84
		c1.19-0.36,2.63-0.96,4.3-1.79c1.67-0.84,3.28-1.82,4.84-2.96c1.55-1.13,2.87-2.39,3.94-3.76c1.07-1.37,1.61-2.78,1.61-4.21
		c0-0.24,0-0.6,0-1.07c0-0.48-0.06-0.78-0.18-0.9c-0.36-1.07-1.07-2.87-2.15-5.38c-1.07-2.51-2.18-5.11-3.31-7.79
		c-1.14-2.69-2.24-5.22-3.31-7.61c-1.07-2.39-1.79-4-2.15-4.84c-0.24-0.36-0.81-0.99-1.7-1.88c-0.9-0.9-1.52-1.46-1.88-1.7
		c-1.43,1.32-2.45,2.93-3.05,4.84c-0.6,1.91-0.99,3.88-1.16,5.91c-0.18,2.03-0.21,4.03-0.09,6C579.98,89.3,580.05,91,580.05,92.44z"
		/>
	<path class="st1" d="M656.55,134.72c0-3.82,0.72-6.36,2.15-7.61c1.43-1.25,4.06-1.88,7.88-1.88c2.39,0,4.42,0.24,6.09,0.72
		c1.67,0.48,3.22,1.28,4.66,2.42c1.43,1.14,2.84,2.66,4.21,4.57c1.37,1.91,2.9,4.3,4.57,7.17c-0.72,1.79-1.52,3.22-2.42,4.3
		c-0.9,1.07-1.82,1.85-2.78,2.33c-0.96,0.48-2.03,0.78-3.22,0.9c-1.19,0.12-2.51,0.18-3.94,0.18c-2.27,0-4.42-0.24-6.45-0.72
		c-2.03-0.48-3.85-1.22-5.46-2.24c-1.61-1.01-2.9-2.36-3.85-4.03C657.02,139.14,656.55,137.11,656.55,134.72z"/>
</g>
</svg>
